<svg width="60" height="91" viewBox="0 0 60 91" fill="none" xmlns="http://www.w3.org/2000/svg">
<path d="M32.9997 3.95181C32.9731 1.74283 31.1608 -0.0263238 28.9518 0.000290394C26.7428 0.0269046 24.9737 1.83921 25.0003 4.04819L32.9997 3.95181ZM27.2059 89.8623C28.7867 91.4055 31.3191 91.375 32.8623 89.7942L58.0096 64.0335C59.5528 62.4527 59.5223 59.9202 57.9415 58.377C56.3607 56.8339 53.8282 56.8644 52.285 58.4452L29.9319 81.3436L7.03348 58.9904C5.45267 57.4472 2.9202 57.4777 1.37703 59.0585C-0.166132 60.6393 -0.135621 63.1718 1.44518 64.715L27.2059 89.8623ZM25.0003 4.04819L26.0003 87.0482L33.9997 86.9518L32.9997 3.95181L25.0003 4.04819Z" fill="#6557F1"/>
</svg>
