<?xml version="1.0" standalone="no"?>
<!DOCTYPE svg PUBLIC "-//W3C//DTD SVG 20010904//EN"
 "http://www.w3.org/TR/2001/REC-SVG-20010904/DTD/svg10.dtd">
<svg version="1.0" xmlns="http://www.w3.org/2000/svg"
 width="464.000000pt" height="464.000000pt" viewBox="0 0 464.000000 464.000000"
 preserveAspectRatio="xMidYMid meet">
<metadata>
Created by potrace 1.14, written by Peter Selinger 2001-2017
</metadata>
<g transform="translate(0.000000,464.000000) scale(0.100000,-0.100000)"
fill="#000000" stroke="none">
<path d="M178 3565 c-6 -1 -3 -2497 3 -2501 7 -4 1219 -6 2287 -4 l212 0 0
433 c0 239 -2 436 -5 439 -3 3 -16 3 -28 1 l-23 -4 1 -405 0 -404 -70 0 c-108
-1 -2245 -1 -2287 -1 l-38 1 0 1194 0 1194 1195 0 1195 1 1 -22 c1 -12 2 -195
3 -407 l1 -385 25 0 25 0 3 436 2 435 -1250 0 c-687 0 -1251 0 -1252 -1z"/>
<path d="M1140 2315 l0 -294 35 1 c39 1 38 -5 35 136 l-1 72 63 0 c70 0 138
25 171 63 47 53 60 134 32 200 -34 82 -100 114 -237 116 l-98 1 0 -295z m228
204 c26 -17 45 -60 45 -105 0 -81 -56 -119 -169 -115 l-32 1 -1 119 c0 105 2
120 17 123 28 6 117 -9 140 -23z"/>
<path d="M4139 2607 c-1 -1 -3 -101 -4 -223 -1 -235 -9 -277 -49 -290 -36 -12
-79 -4 -103 18 -27 25 -29 24 -38 -23 -8 -43 4 -56 67 -67 55 -11 122 7 154
41 37 40 44 90 44 324 l0 221 -35 0 c-19 0 -36 -1 -36 -1z"/>
<path d="M1589 2405 c-4 -31 -4 -353 -1 -367 3 -13 13 -17 36 -15 l31 3 1 115
c2 130 15 168 64 194 16 8 42 15 59 15 29 0 29 0 18 35 -8 28 -15 34 -31 31
-41 -8 -78 -27 -97 -49 l-18 -22 -1 36 c0 34 -2 37 -30 35 -16 0 -31 -5 -31
-11z"/>
<path d="M1971 2404 c-34 -14 -79 -57 -100 -94 -25 -44 -23 -127 4 -180 28
-55 101 -109 149 -111 53 -2 91 3 102 12 6 5 13 6 17 3 9 -10 88 76 104 114
44 105 -18 233 -126 262 -49 13 -111 11 -150 -6z m173 -82 c64 -58 54 -170
-20 -218 -28 -19 -101 -22 -132 -5 -60 32 -85 127 -50 188 42 70 142 87 202
35z"/>
<path d="M2465 2407 c-50 -20 -80 -45 -104 -88 -27 -48 -34 -128 -16 -174 22
-50 97 -113 147 -122 56 -9 55 -9 109 5 62 16 82 40 74 86 -4 20 -10 36 -12
36 -3 0 -21 -13 -40 -30 -18 -16 -44 -31 -56 -31 -12 -1 -29 -2 -37 -3 -25 -3
-86 31 -103 57 -25 39 -27 96 -6 139 40 79 143 94 211 30 15 -14 30 -23 33
-20 3 3 6 22 8 44 2 37 0 40 -43 62 -49 24 -116 28 -165 9z"/>
<path d="M2764 2409 c-9 -15 -5 -239 6 -277 31 -115 167 -151 258 -68 23 20
24 21 21 1 -5 -29 8 -45 37 -45 27 0 25 -21 25 237 0 79 -2 147 -5 151 -3 5
-18 8 -33 7 l-28 -1 -5 -135 c-5 -145 -10 -158 -61 -184 -56 -30 -132 9 -144
74 -2 9 -4 68 -4 132 l-1 115 -31 0 c-16 0 -32 -3 -35 -7z"/>
<path d="M3239 2415 c-1 0 -2 -87 -3 -192 -1 -123 2 -194 9 -196 5 -2 21 -3
35 -3 l25 1 2 118 c2 82 7 126 18 147 17 33 61 60 100 60 21 0 25 5 25 29 0
16 -6 31 -14 34 -24 9 -81 -11 -107 -39 l-24 -26 -5 34 c-4 28 -9 33 -32 33
-16 1 -29 1 -29 0z"/>
<path d="M3605 2395 c-62 -35 -98 -92 -100 -162 -3 -70 12 -110 61 -157 62
-60 163 -75 245 -37 l47 22 -10 40 c-6 21 -14 39 -19 39 -5 0 -9 -4 -9 -8 0
-12 -52 -40 -86 -45 -62 -10 -154 47 -154 96 0 16 13 17 158 16 l157 -1 0 32
c2 143 -162 236 -290 165z m140 -45 c32 -12 75 -57 75 -79 0 -14 -17 -16 -120
-16 -136 0 -146 7 -87 62 46 44 80 53 132 33z"/>
<path d="M4384 2405 c-55 -29 -73 -100 -39 -158 6 -9 44 -34 85 -55 69 -34 75
-39 73 -66 -3 -39 -19 -48 -73 -41 -31 4 -52 13 -70 32 l-24 27 -8 -38 c-5
-25 -4 -43 3 -52 20 -24 88 -40 151 -35 9 0 33 16 52 35 29 27 36 41 36 70 0
37 -13 71 -34 91 -13 12 -65 37 -84 41 -27 5 -62 35 -62 54 0 64 98 65 146 1
9 -11 13 -7 18 24 6 30 4 42 -12 57 -26 27 -117 34 -158 13z"/>
</g>
</svg>
